# xmcd
#
# Track frame offsets: 
#        150
#        16518
#        32596
#        47073
#        62914
#        76184
#        91371
#        107871
#        120705
#        129713
#        141505
#        159204
#        170375
#        184995
#        200019
#        213184
#        228016
#        243242
#        260029
#        275696
#
# Disc length: 3833 seconds
#
# Revision: 1
# Processed by: cddbd v1.5.2PL0 Copyright (c) Steve Scherf et al.
# Submitted via: ExactAudioCopy v1.0b3
#
DISCID=160ef714
DTITLE=Holiday, Billie - Sings Her Favorite Blues Songs
DYEAR=2006
DGENRE=Blues
TTITLE0=Lover Come Back To Me
TTITLE1=A Fine Romance
TTITLE2=What A Little Moonlight Can Do
TTITLE3=Blue Moon
TTITLE4=Strange Fruit
TTITLE5=Tenderly
TTITLE6=Stormy Weather
TTITLE7=Yesterdays
TTITLE8=All Of Me
TTITLE9=Remember
TTITLE10=I Don't Want To Cry Anymore
TTITLE11=I Cried For You (Now It's Your Turn To Cry Over Me)
TTITLE12=Solitude
TTITLE13=Body And Soul
TTITLE14=God Bless The Child
TTITLE15=Lover Man
TTITLE16=Travelin' Light
TTITLE17=Autumn in NY
TTITLE18=Stormy Blues
TTITLE19=My Man
EXTD=
EXTT0=
EXTT1=
EXTT2=
EXTT3=
EXTT4=
EXTT5=
EXTT6=
EXTT7=
EXTT8=
EXTT9=
EXTT10=
EXTT11=
EXTT12=
EXTT13=
EXTT14=
EXTT15=
EXTT16=
EXTT17=
EXTT18=
EXTT19=
PLAYORDER=
